<?xml version="1.0" standalone="no"?>
<!DOCTYPE svg PUBLIC "-//W3C//DTD SVG 20010904//EN"
 "http://www.w3.org/TR/2001/REC-SVG-20010904/DTD/svg10.dtd">
<svg version="1.0" xmlns="http://www.w3.org/2000/svg"
 width="16.000000pt" height="16.000000pt" viewBox="0 0 16.000000 16.000000"
 preserveAspectRatio="xMidYMid meet">
<metadata>
Created by potrace 1.11, written by Peter Selinger 2001-2013
</metadata>
<g transform="translate(0.000000,16.000000) scale(0.006154,-0.006154)"
fill="#000000" stroke="none">
<path d="M1085 2434 c-122 -20 -274 -64 -343 -100 -15 -7 -30 -14 -35 -14 -20
0 -191 -106 -263 -163 -199 -158 -334 -365 -395 -604 -25 -99 -35 -302 -18
-388 5 -27 11 -61 14 -75 5 -28 45 -146 68 -200 8 -19 13 -42 12 -50 -1 -8 -5
-80 -9 -160 -4 -80 -9 -163 -11 -185 -12 -116 -15 -275 -6 -275 5 0 105 42
222 94 l211 94 52 -32 c96 -62 305 -144 405 -161 19 -3 37 -8 41 -10 39 -24
396 -26 525 -2 187 34 384 116 539 224 157 109 313 291 388 453 31 68 65 165
73 209 2 14 9 49 14 76 5 28 8 106 7 175 -6 278 -111 515 -318 723 -255 254
-585 385 -968 384 -69 0 -161 -6 -205 -13z m192 -612 c12 -9 23 -24 24 -32 3
-13 -7 -93 -16 -140 -18 -91 -18 -90 1 -91 41 -3 137 0 140 4 3 2 7 19 9 38
13 88 44 201 60 219 28 31 91 24 118 -12 20 -27 20 -28 3 -125 -26 -141 -28
-128 19 -132 9 0 26 -12 39 -24 43 -43 13 -124 -48 -128 -11 -1 -31 -2 -43 -2
-19 -1 -24 -9 -33 -56 -6 -31 -16 -72 -21 -91 -17 -67 -15 -70 49 -70 93 0
136 -46 108 -115 -17 -39 -32 -45 -130 -48 l-70 -2 -11 -50 c-7 -27 -20 -85
-29 -127 -19 -84 -28 -96 -78 -104 -42 -7 -75 18 -82 61 -3 17 3 71 13 120 10
50 16 93 14 97 -2 3 -37 6 -78 6 -60 0 -75 -3 -79 -17 -3 -9 -14 -61 -26 -116
-22 -109 -42 -146 -80 -152 -34 -5 -75 14 -87 40 -11 24 -10 31 12 153 19 101
19 94 -8 94 -54 0 -89 58 -67 110 13 32 47 50 93 50 l33 0 20 105 c12 58 18
105 15 106 -3 0 -29 2 -58 3 -47 2 -101 25 -104 44 -14 90 9 113 116 118 43 1
79 5 82 8 3 3 14 47 24 98 24 117 26 121 50 152 24 31 73 35 106 8z"/>
<path d="M1240 1390 c-6 -4 -50 -183 -50 -205 0 -3 37 -5 82 -3 l83 3 7 40 c4
22 10 58 14 80 16 90 17 89 -59 89 -38 1 -73 -1 -77 -4z"/>
</g>
</svg>
